<svg width="600" height="120" viewBox="0 0 600 120" fill="none" xmlns="http://www.w3.org/2000/svg">
<rect width="600" height="120" fill="#0A1628"/>
<path d="M59.2151 70.22C58.0784 70.22 56.6668 70.165 54.9801 70.055C53.2934 69.945 51.7534 69.89 50.3601 69.89C49.0401 69.89 47.7934 69.9083 46.6201 69.945C45.4468 69.9817 44.4018 70 43.4851 70C43.4118 70 43.3751 69.89 43.3751 69.67C43.3751 69.45 43.4118 69.34 43.4851 69.34C44.6584 69.34 45.5568 69.2483 46.1801 69.065C46.8034 68.8817 47.2068 68.515 47.3901 67.965C47.6101 67.415 47.7201 66.6083 47.7201 65.545V40.08C47.7201 39.0167 47.6101 38.2283 47.3901 37.715C47.2068 37.165 46.8218 36.7983 46.2351 36.615C45.6484 36.395 44.7501 36.285 43.5401 36.285C43.4668 36.285 43.4301 36.175 43.4301 35.955C43.4301 35.735 43.4668 35.625 43.5401 35.625C44.4934 35.625 45.5384 35.6617 46.6751 35.735C47.8118 35.7717 49.0401 35.79 50.3601 35.79C51.6434 35.79 53.0368 35.7533 54.5401 35.68C56.0801 35.57 57.3818 35.515 58.4451 35.515C62.2951 35.515 65.6501 36.2483 68.5101 37.715C71.3701 39.1817 73.5884 41.18 75.1651 43.71C76.7418 46.24 77.5301 49.0817 77.5301 52.235C77.5301 54.985 77.0534 57.4783 76.1001 59.715C75.1468 61.915 73.8084 63.8033 72.0851 65.38C70.3984 66.92 68.4368 68.1117 66.2001 68.955C64.0001 69.7983 61.6718 70.22 59.2151 70.22ZM58.6651 69.12C61.1951 69.12 63.4318 68.515 65.3751 67.305C67.3184 66.095 68.8401 64.335 69.9401 62.025C71.0768 59.6783 71.6451 56.8183 71.6451 53.445C71.6451 50.2917 71.1318 47.45 70.1051 44.92C69.0784 42.3533 67.6118 40.3367 65.7051 38.87C63.8351 37.3667 61.5984 36.615 58.9951 36.615C56.8318 36.615 55.2734 36.8167 54.3201 37.22C53.4034 37.6233 52.9451 38.6133 52.9451 40.19V64.94C52.9451 66.37 53.3118 67.4333 54.0451 68.13C54.7784 68.79 56.3184 69.12 58.6651 69.12ZM89.8608 55.095L89.4758 54.435C90.8692 52.785 92.0425 51.52 92.9958 50.64C93.9858 49.7233 94.8108 49.1 95.4708 48.77C96.1308 48.4033 96.7542 48.22 97.3408 48.22C98.1108 48.22 98.8808 48.495 99.6508 49.045C100.458 49.5583 100.861 50.2183 100.861 51.025C100.861 51.685 100.659 52.235 100.256 52.675C99.8525 53.115 99.2842 53.335 98.5508 53.335C97.8908 53.335 97.3775 53.1517 97.0108 52.785C96.6442 52.4183 96.2958 52.07 95.9658 51.74C95.6358 51.41 95.1775 51.245 94.5908 51.245C94.2975 51.245 93.9858 51.3367 93.6558 51.52C93.3258 51.6667 92.8675 52.015 92.2808 52.565C91.6942 53.115 90.8875 53.9583 89.8608 55.095ZM83.5908 70C83.4808 70 83.4258 69.89 83.4258 69.67C83.4258 69.45 83.4808 69.34 83.5908 69.34C84.8375 69.34 85.6625 69.0833 86.0658 68.57C86.4692 68.0567 86.6708 67.0483 86.6708 65.545V55.04C86.6708 53.8667 86.5425 53.005 86.2858 52.455C86.0292 51.905 85.5708 51.63 84.9108 51.63C84.5808 51.63 84.1775 51.7033 83.7008 51.85C83.2242 51.9967 82.7108 52.1983 82.1608 52.455C82.0142 52.4917 81.8858 52.4183 81.7758 52.235C81.7025 52.015 81.7208 51.8867 81.8308 51.85L89.0358 48.33C89.2192 48.2567 89.3475 48.22 89.4208 48.22C89.7875 48.22 90.1542 48.6417 90.5208 49.485C90.9242 50.3283 91.1258 51.5567 91.1258 53.17V65.545C91.1258 66.535 91.2725 67.3233 91.5658 67.91C91.8592 68.46 92.3725 68.845 93.1058 69.065C93.8392 69.2483 94.8658 69.34 96.1858 69.34C96.3325 69.34 96.4058 69.45 96.4058 69.67C96.4058 69.89 96.3325 70 96.1858 70C95.2325 70 94.1325 69.9817 92.8858 69.945C91.6758 69.9083 90.3558 69.89 88.9258 69.89C87.9358 69.89 86.9642 69.9083 86.0108 69.945C85.0942 69.9817 84.2875 70 83.5908 70ZM106.739 70.605C105.822 70.605 105.089 70.3483 104.539 69.835C103.989 69.285 103.714 68.5333 103.714 67.58C103.714 66.7367 103.989 66.0583 104.539 65.545C105.089 64.995 105.822 64.72 106.739 64.72C107.692 64.72 108.425 64.995 108.939 65.545C109.452 66.0583 109.709 66.7367 109.709 67.58C109.709 68.5333 109.452 69.285 108.939 69.835C108.425 70.3483 107.692 70.605 106.739 70.605ZM133.385 65.545V40.08C133.385 39.0167 133.293 38.2283 133.11 37.715C132.926 37.165 132.523 36.7983 131.9 36.615C131.313 36.395 130.415 36.285 129.205 36.285C129.131 36.285 129.095 36.175 129.095 35.955C129.095 35.735 129.131 35.625 129.205 35.625C130.158 35.625 131.203 35.6617 132.34 35.735C133.476 35.7717 134.686 35.79 135.97 35.79C137.363 35.79 138.628 35.7717 139.765 35.735C140.901 35.6617 141.91 35.625 142.79 35.625C142.9 35.625 142.955 35.735 142.955 35.955C142.955 36.175 142.9 36.285 142.79 36.285C141.616 36.285 140.736 36.395 140.15 36.615C139.563 36.835 139.16 37.22 138.94 37.77C138.72 38.32 138.61 39.1267 138.61 40.19V65.545C138.61 66.6083 138.701 67.415 138.885 67.965C139.105 68.515 139.508 68.8817 140.095 69.065C140.681 69.2483 141.58 69.34 142.79 69.34C142.936 69.34 143.01 69.45 143.01 69.67C143.01 69.89 142.936 70 142.79 70C141.873 70 140.846 69.9817 139.71 69.945C138.61 69.9083 137.363 69.89 135.97 69.89C134.686 69.89 133.458 69.9083 132.285 69.945C131.111 69.9817 130.066 70 129.15 70C129.076 70 129.04 69.89 129.04 69.67C129.04 69.45 129.076 69.34 129.15 69.34C130.36 69.34 131.258 69.2483 131.845 69.065C132.468 68.8817 132.871 68.515 133.055 67.965C133.275 67.415 133.385 66.6083 133.385 65.545ZM147.685 62.025L139.71 51.575L143.56 48.055L151.81 59C153.313 61.0533 154.596 62.74 155.66 64.06C156.723 65.3433 157.603 66.37 158.3 67.14C158.996 67.8733 159.62 68.405 160.17 68.735C160.72 69.0283 161.251 69.2117 161.765 69.285C162.278 69.3217 162.846 69.34 163.47 69.34C163.58 69.34 163.635 69.45 163.635 69.67C163.635 69.89 163.58 70 163.47 70C161.856 70 160.555 70 159.565 70C158.575 70 157.823 70 157.31 70C156.833 70 156.43 70.0183 156.1 70.055C155.77 70.0917 155.476 70.11 155.22 70.11C154.706 70.11 154.266 70.0183 153.9 69.835C153.57 69.6517 153.166 69.285 152.69 68.735C152.25 68.185 151.626 67.3783 150.82 66.315C150.05 65.2517 149.005 63.8217 147.685 62.025ZM135.255 55.26L149.445 40.85C150.801 39.4933 151.333 38.3933 151.04 37.55C150.746 36.7067 149.665 36.285 147.795 36.285C147.721 36.285 147.685 36.175 147.685 35.955C147.685 35.735 147.721 35.625 147.795 35.625C148.785 35.625 149.775 35.6617 150.765 35.735C151.755 35.7717 153.056 35.79 154.67 35.79C156.32 35.79 157.621 35.7717 158.575 35.735C159.528 35.6617 160.463 35.625 161.38 35.625C161.49 35.625 161.545 35.735 161.545 35.955C161.545 36.175 161.49 36.285 161.38 36.285C159.803 36.285 158.061 36.7067 156.155 37.55C154.248 38.3933 152.47 39.6033 150.82 41.18L136.74 55.37L135.255 55.26ZM181.696 70.33C181.55 70.4033 181.385 70.44 181.201 70.44C180.615 70.44 180.028 70.0183 179.441 69.175C178.855 68.3317 178.561 67.1033 178.561 65.49V55.81C178.561 53.5 178.323 51.8317 177.846 50.805C177.406 49.7783 176.691 49.265 175.701 49.265C174.785 49.265 174.07 49.54 173.556 50.09C173.08 50.6033 172.731 51.2083 172.511 51.905C172.291 52.565 172.163 53.1333 172.126 53.61C172.016 54.5267 171.723 55.2233 171.246 55.7C170.806 56.1767 170.165 56.415 169.321 56.415C168.478 56.415 167.873 56.2317 167.506 55.865C167.14 55.4617 166.956 55.0033 166.956 54.49C166.956 53.6833 167.323 52.9133 168.056 52.18C168.826 51.41 169.78 50.7317 170.916 50.145C172.09 49.5583 173.3 49.1 174.546 48.77C175.793 48.4033 176.893 48.22 177.846 48.22C179.35 48.22 180.578 48.6967 181.531 49.65C182.521 50.6033 183.016 52.1067 183.016 54.16V64.06C183.016 65.1967 183.2 66.0583 183.566 66.645C183.933 67.2317 184.465 67.525 185.161 67.525C185.748 67.525 186.408 67.36 187.141 67.03C187.325 66.9567 187.453 67.03 187.526 67.25C187.6 67.4333 187.545 67.5617 187.361 67.635L181.696 70.33ZM171.356 70.385C169.816 70.385 168.661 70.0183 167.891 69.285C167.158 68.5517 166.791 67.6167 166.791 66.48C166.791 65.4533 167.066 64.6283 167.616 64.005C168.166 63.345 168.936 62.8133 169.926 62.41C170.916 61.97 172.016 61.53 173.226 61.09L179.111 58.89L179.276 59.715L175.261 61.42C174.821 61.5667 174.345 61.7867 173.831 62.08C173.318 62.3367 172.878 62.685 172.511 63.125C172.181 63.565 172.016 64.1517 172.016 64.885C172.016 65.765 172.31 66.48 172.896 67.03C173.483 67.5433 174.143 67.8 174.876 67.8C175.206 67.8 175.536 67.7633 175.866 67.69C176.196 67.58 176.581 67.3783 177.021 67.085L179.991 65.105L180.046 65.93L176.141 68.68C175.298 69.2667 174.51 69.7067 173.776 70C173.08 70.2567 172.273 70.385 171.356 70.385ZM194.617 51.63C194.617 52.4733 194.837 53.2067 195.277 53.83C195.717 54.4533 196.285 55.0217 196.982 55.535C197.679 56.0117 198.43 56.47 199.237 56.91C200.154 57.4233 201.034 57.955 201.877 58.505C202.757 59.055 203.49 59.7333 204.077 60.54C204.664 61.31 204.957 62.3183 204.957 63.565C204.957 64.7383 204.645 65.875 204.022 66.975C203.435 68.0383 202.537 68.9183 201.327 69.615C200.154 70.275 198.669 70.605 196.872 70.605C195.955 70.605 195.057 70.495 194.177 70.275C193.297 70.055 192.344 69.6517 191.317 69.065C191.244 68.9917 191.17 68.9 191.097 68.79C191.024 68.68 190.987 68.5517 190.987 68.405L190.877 63.345C190.877 63.235 190.969 63.18 191.152 63.18C191.372 63.1433 191.5 63.18 191.537 63.29C191.94 64.4633 192.49 65.5267 193.187 66.48C193.92 67.4333 194.727 68.185 195.607 68.735C196.524 69.2483 197.459 69.505 198.412 69.505C199.329 69.505 200.044 69.2667 200.557 68.79C201.107 68.2767 201.364 67.5067 201.327 66.48C201.327 65.4533 201.089 64.61 200.612 63.95C200.135 63.2533 199.53 62.6667 198.797 62.19C198.1 61.7133 197.367 61.2733 196.597 60.87C195.717 60.3933 194.855 59.9167 194.012 59.44C193.205 58.9267 192.527 58.285 191.977 57.515C191.427 56.7083 191.152 55.6633 191.152 54.38C191.152 52.8767 191.519 51.685 192.252 50.805C193.022 49.8883 194.012 49.2283 195.222 48.825C196.432 48.385 197.679 48.165 198.962 48.165C199.732 48.165 200.447 48.22 201.107 48.33C201.804 48.44 202.555 48.66 203.362 48.99C203.692 49.1 203.857 49.3017 203.857 49.595C203.857 50.2917 203.839 51.0067 203.802 51.74C203.765 52.4733 203.747 53.2983 203.747 54.215C203.747 54.2883 203.637 54.325 203.417 54.325C203.197 54.325 203.087 54.2883 203.087 54.215C203.087 53.4817 202.794 52.73 202.207 51.96C201.62 51.19 200.869 50.5483 199.952 50.035C199.072 49.485 198.137 49.21 197.147 49.21C196.487 49.21 195.9 49.375 195.387 49.705C194.874 50.035 194.617 50.6767 194.617 51.63ZM218.482 70.605C216.539 70.605 214.999 69.9817 213.862 68.735C212.762 67.4883 212.212 65.82 212.212 63.73V55.535C212.212 54.2517 212.066 53.3167 211.772 52.73C211.516 52.1067 211.094 51.795 210.507 51.795C210.067 51.795 209.554 51.9417 208.967 52.235C208.821 52.2717 208.692 52.18 208.582 51.96C208.509 51.74 208.527 51.6117 208.637 51.575L215.567 48.33C215.677 48.2933 215.769 48.275 215.842 48.275C215.989 48.275 216.154 48.3483 216.337 48.495C216.521 48.6417 216.612 48.77 216.612 48.88V61.365C216.612 63.4183 216.979 64.9583 217.712 65.985C218.482 66.975 219.637 67.47 221.177 67.47C222.351 67.47 223.524 67.14 224.697 66.48C225.907 65.7833 226.897 64.885 227.667 63.785L227.997 64.445C226.604 66.3517 225.119 67.855 223.542 68.955C221.966 70.055 220.279 70.605 218.482 70.605ZM231.022 48.88V63.785C231.022 65.0317 231.151 65.93 231.407 66.48C231.664 66.9933 232.104 67.25 232.727 67.25C233.021 67.25 233.369 67.195 233.772 67.085C234.176 66.9383 234.652 66.7733 235.202 66.59C235.349 66.5167 235.477 66.59 235.587 66.81C235.697 66.9933 235.679 67.1217 235.532 67.195L228.327 70.66C228.254 70.6967 228.181 70.715 228.107 70.715C227.777 70.715 227.447 70.275 227.117 69.395C226.787 68.515 226.622 67.2683 226.622 65.655V55.535C226.622 54.2517 226.494 53.3167 226.237 52.73C225.981 52.1067 225.541 51.795 224.917 51.795C224.477 51.795 223.964 51.9417 223.377 52.235C223.231 52.2717 223.121 52.18 223.047 51.96C222.974 51.74 222.992 51.6117 223.102 51.575L230.032 48.33C230.106 48.2933 230.179 48.275 230.252 48.275C230.436 48.275 230.601 48.3483 230.747 48.495C230.931 48.6417 231.022 48.77 231.022 48.88ZM262.172 65.325C262.172 66.425 262.3 67.2683 262.557 67.855C262.813 68.405 263.345 68.79 264.152 69.01C264.995 69.23 266.242 69.34 267.892 69.34C268.002 69.34 268.057 69.45 268.057 69.67C268.057 69.89 268.002 70 267.892 70C266.718 70 265.435 69.9817 264.042 69.945C262.685 69.9083 261.2 69.89 259.587 69.89C258.303 69.89 257.075 69.9083 255.902 69.945C254.728 69.9817 253.683 70 252.767 70C252.657 70 252.602 69.89 252.602 69.67C252.602 69.45 252.657 69.34 252.767 69.34C253.977 69.34 254.875 69.2483 255.462 69.065C256.048 68.8817 256.433 68.515 256.617 67.965C256.837 67.415 256.947 66.6083 256.947 65.545V40.08C256.947 39.0167 256.837 38.2283 256.617 37.715C256.433 37.165 256.048 36.7983 255.462 36.615C254.875 36.395 253.977 36.285 252.767 36.285C252.657 36.285 252.602 36.175 252.602 35.955C252.602 35.735 252.657 35.625 252.767 35.625C253.683 35.625 254.71 35.6617 255.847 35.735C257.02 35.7717 258.248 35.79 259.532 35.79C260.412 35.79 261.548 35.735 262.942 35.625C264.372 35.515 265.747 35.46 267.067 35.46C269.303 35.46 271.283 35.7717 273.007 36.395C274.767 36.9817 276.16 37.935 277.187 39.255C278.213 40.575 278.763 42.3167 278.837 44.48C278.873 46.3867 278.543 48.0367 277.847 49.43C277.15 50.8233 276.197 51.9783 274.987 52.895C273.813 53.775 272.512 54.4533 271.082 54.93C269.652 55.37 268.222 55.59 266.792 55.59C266.388 55.59 265.948 55.5717 265.472 55.535C265.032 55.4983 264.592 55.425 264.152 55.315C264.042 55.2783 264.005 55.15 264.042 54.93C264.078 54.6733 264.17 54.5633 264.317 54.6C264.61 54.6733 264.94 54.7283 265.307 54.765C265.673 54.8017 265.985 54.82 266.242 54.82C267.452 54.82 268.57 54.49 269.597 53.83C270.623 53.17 271.448 52.1617 272.072 50.805C272.732 49.4483 273.062 47.7433 273.062 45.69C273.062 43.7467 272.75 42.0967 272.127 40.74C271.503 39.3833 270.623 38.3567 269.487 37.66C268.387 36.9267 267.03 36.56 265.417 36.56C264.573 36.56 263.913 36.6517 263.437 36.835C262.96 36.9817 262.63 37.3117 262.447 37.825C262.263 38.3383 262.172 39.1267 262.172 40.19V65.325ZM290.059 55.095L289.674 54.435C291.067 52.785 292.24 51.52 293.194 50.64C294.184 49.7233 295.009 49.1 295.669 48.77C296.329 48.4033 296.952 48.22 297.539 48.22C298.309 48.22 299.079 48.495 299.849 49.045C300.655 49.5583 301.059 50.2183 301.059 51.025C301.059 51.685 300.857 52.235 300.454 52.675C300.05 53.115 299.482 53.335 298.749 53.335C298.089 53.335 297.575 53.1517 297.209 52.785C296.842 52.4183 296.494 52.07 296.164 51.74C295.834 51.41 295.375 51.245 294.789 51.245C294.495 51.245 294.184 51.3367 293.854 51.52C293.524 51.6667 293.065 52.015 292.479 52.565C291.892 53.115 291.085 53.9583 290.059 55.095ZM283.789 70C283.679 70 283.624 69.89 283.624 69.67C283.624 69.45 283.679 69.34 283.789 69.34C285.035 69.34 285.86 69.0833 286.264 68.57C286.667 68.0567 286.869 67.0483 286.869 65.545V55.04C286.869 53.8667 286.74 53.005 286.484 52.455C286.227 51.905 285.769 51.63 285.109 51.63C284.779 51.63 284.375 51.7033 283.899 51.85C283.422 51.9967 282.909 52.1983 282.359 52.455C282.212 52.4917 282.084 52.4183 281.974 52.235C281.9 52.015 281.919 51.8867 282.029 51.85L289.234 48.33C289.417 48.2567 289.545 48.22 289.619 48.22C289.985 48.22 290.352 48.6417 290.719 49.485C291.122 50.3283 291.324 51.5567 291.324 53.17V65.545C291.324 66.535 291.47 67.3233 291.764 67.91C292.057 68.46 292.57 68.845 293.304 69.065C294.037 69.2483 295.064 69.34 296.384 69.34C296.53 69.34 296.604 69.45 296.604 69.67C296.604 69.89 296.53 70 296.384 70C295.43 70 294.33 69.9817 293.084 69.945C291.874 69.9083 290.554 69.89 289.124 69.89C288.134 69.89 287.162 69.9083 286.209 69.945C285.292 69.9817 284.485 70 283.789 70ZM319.888 70.33C319.741 70.4033 319.576 70.44 319.393 70.44C318.806 70.44 318.22 70.0183 317.633 69.175C317.046 68.3317 316.753 67.1033 316.753 65.49V55.81C316.753 53.5 316.515 51.8317 316.038 50.805C315.598 49.7783 314.883 49.265 313.893 49.265C312.976 49.265 312.261 49.54 311.748 50.09C311.271 50.6033 310.923 51.2083 310.703 51.905C310.483 52.565 310.355 53.1333 310.318 53.61C310.208 54.5267 309.915 55.2233 309.438 55.7C308.998 56.1767 308.356 56.415 307.513 56.415C306.67 56.415 306.065 56.2317 305.698 55.865C305.331 55.4617 305.148 55.0033 305.148 54.49C305.148 53.6833 305.515 52.9133 306.248 52.18C307.018 51.41 307.971 50.7317 309.108 50.145C310.281 49.5583 311.491 49.1 312.738 48.77C313.985 48.4033 315.085 48.22 316.038 48.22C317.541 48.22 318.77 48.6967 319.723 49.65C320.713 50.6033 321.208 52.1067 321.208 54.16V64.06C321.208 65.1967 321.391 66.0583 321.758 66.645C322.125 67.2317 322.656 67.525 323.353 67.525C323.94 67.525 324.6 67.36 325.333 67.03C325.516 66.9567 325.645 67.03 325.718 67.25C325.791 67.4333 325.736 67.5617 325.553 67.635L319.888 70.33ZM309.548 70.385C308.008 70.385 306.853 70.0183 306.083 69.285C305.35 68.5517 304.983 67.6167 304.983 66.48C304.983 65.4533 305.258 64.6283 305.808 64.005C306.358 63.345 307.128 62.8133 308.118 62.41C309.108 61.97 310.208 61.53 311.418 61.09L317.303 58.89L317.468 59.715L313.453 61.42C313.013 61.5667 312.536 61.7867 312.023 62.08C311.51 62.3367 311.07 62.685 310.703 63.125C310.373 63.565 310.208 64.1517 310.208 64.885C310.208 65.765 310.501 66.48 311.088 67.03C311.675 67.5433 312.335 67.8 313.068 67.8C313.398 67.8 313.728 67.7633 314.058 67.69C314.388 67.58 314.773 67.3783 315.213 67.085L318.183 65.105L318.238 65.93L314.333 68.68C313.49 69.2667 312.701 69.7067 311.968 70C311.271 70.2567 310.465 70.385 309.548 70.385ZM332.809 51.63C332.809 52.4733 333.029 53.2067 333.469 53.83C333.909 54.4533 334.477 55.0217 335.174 55.535C335.87 56.0117 336.622 56.47 337.429 56.91C338.345 57.4233 339.225 57.955 340.069 58.505C340.949 59.055 341.682 59.7333 342.269 60.54C342.855 61.31 343.149 62.3183 343.149 63.565C343.149 64.7383 342.837 65.875 342.214 66.975C341.627 68.0383 340.729 68.9183 339.519 69.615C338.345 70.275 336.86 70.605 335.064 70.605C334.147 70.605 333.249 70.495 332.369 70.275C331.489 70.055 330.535 69.6517 329.509 69.065C329.435 68.9917 329.362 68.9 329.289 68.79C329.215 68.68 329.179 68.5517 329.179 68.405L329.069 63.345C329.069 63.235 329.16 63.18 329.344 63.18C329.564 63.1433 329.692 63.18 329.729 63.29C330.132 64.4633 330.682 65.5267 331.379 66.48C332.112 67.4333 332.919 68.185 333.799 68.735C334.715 69.2483 335.65 69.505 336.604 69.505C337.52 69.505 338.235 69.2667 338.749 68.79C339.299 68.2767 339.555 67.5067 339.519 66.48C339.519 65.4533 339.28 64.61 338.804 63.95C338.327 63.2533 337.722 62.6667 336.989 62.19C336.292 61.7133 335.559 61.2733 334.789 60.87C333.909 60.3933 333.047 59.9167 332.204 59.44C331.397 58.9267 330.719 58.285 330.169 57.515C329.619 56.7083 329.344 55.6633 329.344 54.38C329.344 52.8767 329.71 51.685 330.444 50.805C331.214 49.8883 332.204 49.2283 333.414 48.825C334.624 48.385 335.87 48.165 337.154 48.165C337.924 48.165 338.639 48.22 339.299 48.33C339.995 48.44 340.747 48.66 341.554 48.99C341.884 49.1 342.049 49.3017 342.049 49.595C342.049 50.2917 342.03 51.0067 341.994 51.74C341.957 52.4733 341.939 53.2983 341.939 54.215C341.939 54.2883 341.829 54.325 341.609 54.325C341.389 54.325 341.279 54.2883 341.279 54.215C341.279 53.4817 340.985 52.73 340.399 51.96C339.812 51.19 339.06 50.5483 338.144 50.035C337.264 49.485 336.329 49.21 335.339 49.21C334.679 49.21 334.092 49.375 333.579 49.705C333.065 50.035 332.809 50.6767 332.809 51.63ZM363.714 70.33C363.567 70.4033 363.402 70.44 363.219 70.44C362.632 70.44 362.046 70.0183 361.459 69.175C360.872 68.3317 360.579 67.1033 360.579 65.49V55.81C360.579 53.5 360.341 51.8317 359.864 50.805C359.424 49.7783 358.709 49.265 357.719 49.265C356.802 49.265 356.087 49.54 355.574 50.09C355.097 50.6033 354.749 51.2083 354.529 51.905C354.309 52.565 354.181 53.1333 354.144 53.61C354.034 54.5267 353.741 55.2233 353.264 55.7C352.824 56.1767 352.182 56.415 351.339 56.415C350.496 56.415 349.891 56.2317 349.524 55.865C349.157 55.4617 348.974 55.0033 348.974 54.49C348.974 53.6833 349.341 52.9133 350.074 52.18C350.844 51.41 351.797 50.7317 352.934 50.145C354.107 49.5583 355.317 49.1 356.564 48.77C357.811 48.4033 358.911 48.22 359.864 48.22C361.367 48.22 362.596 48.6967 363.549 49.65C364.539 50.6033 365.034 52.1067 365.034 54.16V64.06C365.034 65.1967 365.217 66.0583 365.584 66.645C365.951 67.2317 366.482 67.525 367.179 67.525C367.766 67.525 368.426 67.36 369.159 67.03C369.342 66.9567 369.471 67.03 369.544 67.25C369.617 67.4333 369.562 67.5617 369.379 67.635L363.714 70.33ZM353.374 70.385C351.834 70.385 350.679 70.0183 349.909 69.285C349.176 68.5517 348.809 67.6167 348.809 66.48C348.809 65.4533 349.084 64.6283 349.634 64.005C350.184 63.345 350.954 62.8133 351.944 62.41C352.934 61.97 354.034 61.53 355.244 61.09L361.129 58.89L361.294 59.715L357.279 61.42C356.839 61.5667 356.362 61.7867 355.849 62.08C355.336 62.3367 354.896 62.685 354.529 63.125C354.199 63.565 354.034 64.1517 354.034 64.885C354.034 65.765 354.327 66.48 354.914 67.03C355.501 67.5433 356.161 67.8 356.894 67.8C357.224 67.8 357.554 67.7633 357.884 67.69C358.214 67.58 358.599 67.3783 359.039 67.085L362.009 65.105L362.064 65.93L358.159 68.68C357.316 69.2667 356.527 69.7067 355.794 70C355.097 70.2567 354.291 70.385 353.374 70.385ZM380.925 70.715C379.385 70.715 377.955 70.2933 376.635 69.45C375.315 68.57 374.251 67.3417 373.445 65.765C372.675 64.1883 372.29 62.2817 372.29 60.045C372.29 57.8817 372.693 56.0483 373.5 54.545C374.306 53.005 375.333 51.7583 376.58 50.805C377.863 49.8517 379.238 49.155 380.705 48.715C382.171 48.275 383.565 48.055 384.885 48.055C386.205 48.055 387.433 48.2383 388.57 48.605C389.706 48.9717 390.733 49.4483 391.65 50.035L390.605 54.215C389.798 52.6383 388.863 51.4467 387.8 50.64C386.773 49.7967 385.453 49.375 383.84 49.375C381.823 49.375 380.21 50.09 379 51.52C377.826 52.9133 377.24 55.1867 377.24 58.34C377.24 60.43 377.515 62.2267 378.065 63.73C378.615 65.1967 379.385 66.3333 380.375 67.14C381.365 67.91 382.465 68.295 383.675 68.295C385.178 68.295 386.516 67.8733 387.69 67.03C388.863 66.1867 389.981 65.1783 391.045 64.005L391.54 64.445C390.77 65.325 389.853 66.26 388.79 67.25C387.763 68.2033 386.59 69.0283 385.27 69.725C383.986 70.385 382.538 70.715 380.925 70.715ZM393.96 30.73V63.73C393.96 65.0133 394.088 65.93 394.345 66.48C394.601 66.9933 395.041 67.25 395.665 67.25C395.958 67.25 396.306 67.195 396.71 67.085C397.15 66.975 397.626 66.81 398.14 66.59C398.25 66.5167 398.36 66.59 398.47 66.81C398.58 66.9933 398.58 67.1217 398.47 67.195L391.43 70.605C391.32 70.6417 391.21 70.66 391.1 70.66C390.696 70.66 390.33 70.22 390 69.34C389.67 68.46 389.505 67.1767 389.505 65.49V37.44C389.505 36.1933 389.395 35.2767 389.175 34.69C388.955 34.1033 388.515 33.81 387.855 33.81C387.561 33.81 387.231 33.8833 386.865 34.03C386.498 34.14 386.095 34.2867 385.655 34.47C385.508 34.5433 385.38 34.47 385.27 34.25C385.16 34.03 385.16 33.9017 385.27 33.865L392.97 30.18C393.043 30.1433 393.116 30.125 393.19 30.125C393.336 30.125 393.501 30.1983 393.685 30.345C393.868 30.4917 393.96 30.62 393.96 30.73ZM443.246 70C442.696 70 441.779 69.3033 440.496 67.91C439.213 66.5167 437.654 64.5183 435.821 61.915C434.024 59.275 432.008 56.14 429.771 52.51L434.171 51.19C437.141 55.6267 439.671 59.1833 441.761 61.86C443.888 64.5 445.758 66.4067 447.371 67.58C449.021 68.7533 450.598 69.34 452.101 69.34C452.174 69.34 452.211 69.45 452.211 69.67C452.211 69.89 452.174 70 452.101 70C449.791 70 447.903 70 446.436 70C445.006 70 443.943 70 443.246 70ZM430.761 35.46C433.951 35.46 436.408 36.1017 438.131 37.385C439.891 38.6317 440.771 40.355 440.771 42.555C440.771 44.645 440.166 46.515 438.956 48.165C437.783 49.815 436.243 51.0983 434.336 52.015C432.466 52.9317 430.449 53.39 428.286 53.39C427.846 53.39 427.369 53.39 426.856 53.39C426.343 53.3533 425.884 53.3167 425.481 53.28V65.545C425.481 66.6083 425.573 67.415 425.756 67.965C425.939 68.515 426.324 68.8817 426.911 69.065C427.534 69.2483 428.433 69.34 429.606 69.34C429.716 69.34 429.771 69.45 429.771 69.67C429.771 69.89 429.716 70 429.606 70C428.689 70 427.663 69.9817 426.526 69.945C425.389 69.9083 424.143 69.89 422.786 69.89C421.503 69.89 420.274 69.9083 419.101 69.945C417.928 69.9817 416.883 70 415.966 70C415.856 70 415.801 69.89 415.801 69.67C415.801 69.45 415.856 69.34 415.966 69.34C417.176 69.34 418.074 69.2483 418.661 69.065C419.248 68.8817 419.651 68.515 419.871 67.965C420.091 67.415 420.201 66.6083 420.201 65.545V40.08C420.201 39.0167 420.091 38.2283 419.871 37.715C419.688 37.165 419.303 36.7983 418.716 36.615C418.129 36.395 417.231 36.285 416.021 36.285C415.948 36.285 415.911 36.175 415.911 35.955C415.911 35.735 415.948 35.625 416.021 35.625C416.938 35.625 417.964 35.6617 419.101 35.735C420.274 35.7717 421.503 35.79 422.786 35.79C423.959 35.79 425.279 35.735 426.746 35.625C428.213 35.515 429.551 35.46 430.761 35.46ZM435.326 44.48C435.326 42.3533 435.069 40.7217 434.556 39.585C434.079 38.4117 433.401 37.605 432.521 37.165C431.641 36.725 430.614 36.505 429.441 36.505C428.011 36.505 426.984 36.78 426.361 37.33C425.774 37.8433 425.481 38.7967 425.481 40.19V51.795C425.994 51.8683 426.544 51.9233 427.131 51.96C427.718 51.9967 428.231 52.015 428.671 52.015C431.128 52.015 432.851 51.41 433.841 50.2C434.831 48.9533 435.326 47.0467 435.326 44.48ZM464.304 70.66C461.994 70.66 460.033 70.165 458.419 69.175C456.806 68.185 455.578 66.8833 454.734 65.27C453.928 63.62 453.524 61.8783 453.524 60.045C453.524 57.845 454.056 55.865 455.119 54.105C456.183 52.345 457.631 50.9333 459.464 49.87C461.298 48.8067 463.369 48.275 465.679 48.275C467.843 48.275 469.529 48.7883 470.739 49.815C471.949 50.8417 472.554 52.4367 472.554 54.6C472.554 55.0767 472.518 55.4617 472.444 55.755C472.371 56.0483 472.206 56.195 471.949 56.195H467.439C467.549 54.0683 467.293 52.4 466.669 51.19C466.083 49.98 465.093 49.375 463.699 49.375C462.049 49.375 460.748 50.145 459.794 51.685C458.878 53.1883 458.419 55.205 458.419 57.735C458.419 59.8617 458.749 61.7133 459.409 63.29C460.069 64.83 461.041 66.04 462.324 66.92C463.608 67.8 465.184 68.24 467.054 68.24C468.191 68.24 469.144 68.0933 469.914 67.8C470.684 67.47 471.509 67.0667 472.389 66.59C472.463 66.5167 472.554 66.5533 472.664 66.7C472.811 66.8467 472.848 66.975 472.774 67.085C471.454 68.3683 470.098 69.285 468.704 69.835C467.348 70.385 465.881 70.66 464.304 70.66ZM456.824 56.25L456.769 55.315L468.979 55.095V56.195L456.824 56.25ZM485.71 70.715C484.17 70.715 482.74 70.2933 481.42 69.45C480.1 68.57 479.037 67.3417 478.23 65.765C477.46 64.1883 477.075 62.2817 477.075 60.045C477.075 57.8817 477.479 56.0483 478.285 54.545C479.092 53.005 480.119 51.7583 481.365 50.805C482.649 49.8517 484.024 49.155 485.49 48.715C486.957 48.275 488.35 48.055 489.67 48.055C490.99 48.055 492.219 48.2383 493.355 48.605C494.492 48.9717 495.519 49.4483 496.435 50.035L495.39 54.215C494.584 52.6383 493.649 51.4467 492.585 50.64C491.559 49.7967 490.239 49.375 488.625 49.375C486.609 49.375 484.995 50.09 483.785 51.52C482.612 52.9133 482.025 55.1867 482.025 58.34C482.025 60.43 482.3 62.2267 482.85 63.73C483.4 65.1967 484.17 66.3333 485.16 67.14C486.15 67.91 487.25 68.295 488.46 68.295C489.964 68.295 491.302 67.8733 492.475 67.03C493.649 66.1867 494.767 65.1783 495.83 64.005L496.325 64.445C495.555 65.325 494.639 66.26 493.575 67.25C492.549 68.2033 491.375 69.0283 490.055 69.725C488.772 70.385 487.324 70.715 485.71 70.715ZM498.745 30.73V63.73C498.745 65.0133 498.874 65.93 499.13 66.48C499.387 66.9933 499.827 67.25 500.45 67.25C500.744 67.25 501.092 67.195 501.495 67.085C501.935 66.975 502.412 66.81 502.925 66.59C503.035 66.5167 503.145 66.59 503.255 66.81C503.365 66.9933 503.365 67.1217 503.255 67.195L496.215 70.605C496.105 70.6417 495.995 70.66 495.885 70.66C495.482 70.66 495.115 70.22 494.785 69.34C494.455 68.46 494.29 67.1767 494.29 65.49V37.44C494.29 36.1933 494.18 35.2767 493.96 34.69C493.74 34.1033 493.3 33.81 492.64 33.81C492.347 33.81 492.017 33.8833 491.65 34.03C491.284 34.14 490.88 34.2867 490.44 34.47C490.294 34.5433 490.165 34.47 490.055 34.25C489.945 34.03 489.945 33.9017 490.055 33.865L497.755 30.18C497.829 30.1433 497.902 30.125 497.975 30.125C498.122 30.125 498.287 30.1983 498.47 30.345C498.654 30.4917 498.745 30.62 498.745 30.73ZM514.901 70.715C513.361 70.715 511.931 70.2933 510.611 69.45C509.291 68.57 508.228 67.3417 507.421 65.765C506.651 64.1883 506.266 62.2817 506.266 60.045C506.266 57.8817 506.67 56.0483 507.476 54.545C508.283 53.005 509.31 51.7583 510.556 50.805C511.84 49.8517 513.215 49.155 514.681 48.715C516.148 48.275 517.541 48.055 518.861 48.055C520.181 48.055 521.41 48.2383 522.546 48.605C523.683 48.9717 524.71 49.4483 525.626 50.035L524.581 54.215C523.775 52.6383 522.84 51.4467 521.776 50.64C520.75 49.7967 519.43 49.375 517.816 49.375C515.8 49.375 514.186 50.09 512.976 51.52C511.803 52.9133 511.216 55.1867 511.216 58.34C511.216 60.43 511.491 62.2267 512.041 63.73C512.591 65.1967 513.361 66.3333 514.351 67.14C515.341 67.91 516.441 68.295 517.651 68.295C519.155 68.295 520.493 67.8733 521.666 67.03C522.84 66.1867 523.958 65.1783 525.021 64.005L525.516 64.445C524.746 65.325 523.83 66.26 522.766 67.25C521.74 68.2033 520.566 69.0283 519.246 69.725C517.963 70.385 516.515 70.715 514.901 70.715ZM527.936 30.73V63.73C527.936 65.0133 528.065 65.93 528.321 66.48C528.578 66.9933 529.018 67.25 529.641 67.25C529.935 67.25 530.283 67.195 530.686 67.085C531.126 66.975 531.603 66.81 532.116 66.59C532.226 66.5167 532.336 66.59 532.446 66.81C532.556 66.9933 532.556 67.1217 532.446 67.195L525.406 70.605C525.296 70.6417 525.186 70.66 525.076 70.66C524.673 70.66 524.306 70.22 523.976 69.34C523.646 68.46 523.481 67.1767 523.481 65.49V37.44C523.481 36.1933 523.371 35.2767 523.151 34.69C522.931 34.1033 522.491 33.81 521.831 33.81C521.538 33.81 521.208 33.8833 520.841 34.03C520.475 34.14 520.071 34.2867 519.631 34.47C519.485 34.5433 519.356 34.47 519.246 34.25C519.136 34.03 519.136 33.9017 519.246 33.865L526.946 30.18C527.02 30.1433 527.093 30.125 527.166 30.125C527.313 30.125 527.478 30.1983 527.661 30.345C527.845 30.4917 527.936 30.62 527.936 30.73ZM557.732 48.77C557.805 48.77 557.842 48.88 557.842 49.1C557.842 49.32 557.805 49.43 557.732 49.43C556.595 49.43 555.624 49.8883 554.817 50.805C554.047 51.7217 553.35 53.0417 552.727 54.765L546.402 71.54C545.082 75.06 543.799 77.8283 542.552 79.845C541.342 81.8983 540.095 83.3467 538.812 84.19C537.565 85.0333 536.227 85.455 534.797 85.455C533.807 85.455 533.019 85.235 532.432 84.795C531.845 84.3917 531.552 83.7683 531.552 82.925C531.552 82.1917 531.79 81.6233 532.267 81.22C532.744 80.8533 533.294 80.67 533.917 80.67C534.54 80.67 535.035 80.78 535.402 81C535.805 81.2567 536.172 81.495 536.502 81.715C536.869 81.9717 537.345 82.1 537.932 82.1C538.849 82.1 539.674 81.6967 540.407 80.89C541.177 80.12 542.002 78.8 542.882 76.93C543.762 75.06 544.807 72.5117 546.017 69.285L545.852 71.815L536.777 53.335C535.97 51.7217 535.329 50.6767 534.852 50.2C534.412 49.6867 533.844 49.43 533.147 49.43C533.074 49.43 533.037 49.32 533.037 49.1C533.037 48.88 533.074 48.77 533.147 48.77C533.844 48.77 534.559 48.7883 535.292 48.825C536.062 48.8617 536.795 48.88 537.492 48.88C538.775 48.88 539.894 48.8617 540.847 48.825C541.837 48.7883 542.717 48.77 543.487 48.77C543.597 48.77 543.652 48.88 543.652 49.1C543.652 49.32 543.597 49.43 543.487 49.43C542.24 49.43 541.379 49.5767 540.902 49.87C540.462 50.1633 540.462 50.7317 540.902 51.575L548.052 66.26L546.347 69.175L551.352 54.765C551.939 53.005 551.957 51.685 551.407 50.805C550.857 49.8883 549.757 49.43 548.107 49.43C548.034 49.43 547.997 49.32 547.997 49.1C547.997 48.88 548.034 48.77 548.107 48.77C548.987 48.77 549.812 48.7883 550.582 48.825C551.389 48.8617 552.415 48.88 553.662 48.88C554.505 48.88 555.202 48.8617 555.752 48.825C556.302 48.7883 556.962 48.77 557.732 48.77Z" fill="white"/>
</svg>
