<svg width="320" height="80" viewBox="0 0 320 80" fill="none" xmlns="http://www.w3.org/2000/svg">
<rect width="320" height="80" fill="white"/>
<path d="M28.4355 48.12C27.8155 48.12 27.0455 48.09 26.1255 48.03C25.2055 47.97 24.3655 47.94 23.6055 47.94C22.8855 47.94 22.2055 47.95 21.5655 47.97C20.9255 47.99 20.3555 48 19.8555 48C19.8155 48 19.7955 47.94 19.7955 47.82C19.7955 47.7 19.8155 47.64 19.8555 47.64C20.4955 47.64 20.9855 47.59 21.3255 47.49C21.6655 47.39 21.8855 47.19 21.9855 46.89C22.1055 46.59 22.1655 46.15 22.1655 45.57V31.68C22.1655 31.1 22.1055 30.67 21.9855 30.39C21.8855 30.09 21.6755 29.89 21.3555 29.79C21.0355 29.67 20.5455 29.61 19.8855 29.61C19.8455 29.61 19.8255 29.55 19.8255 29.43C19.8255 29.31 19.8455 29.25 19.8855 29.25C20.4055 29.25 20.9755 29.27 21.5955 29.31C22.2155 29.33 22.8855 29.34 23.6055 29.34C24.3055 29.34 25.0655 29.32 25.8855 29.28C26.7255 29.22 27.4355 29.19 28.0155 29.19C30.1155 29.19 31.9455 29.59 33.5055 30.39C35.0655 31.19 36.2755 32.28 37.1355 33.66C37.9955 35.04 38.4255 36.59 38.4255 38.31C38.4255 39.81 38.1655 41.17 37.6455 42.39C37.1255 43.59 36.3955 44.62 35.4555 45.48C34.5355 46.32 33.4655 46.97 32.2455 47.43C31.0455 47.89 29.7755 48.12 28.4355 48.12ZM28.1355 47.52C29.5155 47.52 30.7355 47.19 31.7955 46.53C32.8555 45.87 33.6855 44.91 34.2855 43.65C34.9055 42.37 35.2155 40.81 35.2155 38.97C35.2155 37.25 34.9355 35.7 34.3755 34.32C33.8155 32.92 33.0155 31.82 31.9755 31.02C30.9555 30.2 29.7355 29.79 28.3155 29.79C27.1355 29.79 26.2855 29.9 25.7655 30.12C25.2655 30.34 25.0155 30.88 25.0155 31.74V45.24C25.0155 46.02 25.2155 46.6 25.6155 46.98C26.0155 47.34 26.8555 47.52 28.1355 47.52ZM45.1514 39.87L44.9414 39.51C45.7014 38.61 46.3414 37.92 46.8614 37.44C47.4014 36.94 47.8514 36.6 48.2114 36.42C48.5714 36.22 48.9114 36.12 49.2314 36.12C49.6514 36.12 50.0714 36.27 50.4914 36.57C50.9314 36.85 51.1514 37.21 51.1514 37.65C51.1514 38.01 51.0414 38.31 50.8214 38.55C50.6014 38.79 50.2914 38.91 49.8914 38.91C49.5314 38.91 49.2514 38.81 49.0514 38.61C48.8514 38.41 48.6614 38.22 48.4814 38.04C48.3014 37.86 48.0514 37.77 47.7314 37.77C47.5714 37.77 47.4014 37.82 47.2214 37.92C47.0414 38 46.7914 38.19 46.4714 38.49C46.1514 38.79 45.7114 39.25 45.1514 39.87ZM41.7314 48C41.6714 48 41.6414 47.94 41.6414 47.82C41.6414 47.7 41.6714 47.64 41.7314 47.64C42.4114 47.64 42.8614 47.5 43.0814 47.22C43.3014 46.94 43.4114 46.39 43.4114 45.57V39.84C43.4114 39.2 43.3414 38.73 43.2014 38.43C43.0614 38.13 42.8114 37.98 42.4514 37.98C42.2714 37.98 42.0514 38.02 41.7914 38.1C41.5314 38.18 41.2514 38.29 40.9514 38.43C40.8714 38.45 40.8014 38.41 40.7414 38.31C40.7014 38.19 40.7114 38.12 40.7714 38.1L44.7014 36.18C44.8014 36.14 44.8714 36.12 44.9114 36.12C45.1114 36.12 45.3114 36.35 45.5114 36.81C45.7314 37.27 45.8414 37.94 45.8414 38.82V45.57C45.8414 46.11 45.9214 46.54 46.0814 46.86C46.2414 47.16 46.5214 47.37 46.9214 47.49C47.3214 47.59 47.8814 47.64 48.6014 47.64C48.6814 47.64 48.7214 47.7 48.7214 47.82C48.7214 47.94 48.6814 48 48.6014 48C48.0814 48 47.4814 47.99 46.8014 47.97C46.1414 47.95 45.4214 47.94 44.6414 47.94C44.1014 47.94 43.5714 47.95 43.0514 47.97C42.5514 47.99 42.1114 48 41.7314 48ZM54.3574 48.33C53.8574 48.33 53.4574 48.19 53.1574 47.91C52.8574 47.61 52.7074 47.2 52.7074 46.68C52.7074 46.22 52.8574 45.85 53.1574 45.57C53.4574 45.27 53.8574 45.12 54.3574 45.12C54.8774 45.12 55.2774 45.27 55.5574 45.57C55.8374 45.85 55.9774 46.22 55.9774 46.68C55.9774 47.2 55.8374 47.61 55.5574 47.91C55.2774 48.19 54.8774 48.33 54.3574 48.33ZM68.8917 45.57V31.68C68.8917 31.1 68.8417 30.67 68.7417 30.39C68.6417 30.09 68.4217 29.89 68.0817 29.79C67.7617 29.67 67.2717 29.61 66.6117 29.61C66.5717 29.61 66.5517 29.55 66.5517 29.43C66.5517 29.31 66.5717 29.25 66.6117 29.25C67.1317 29.25 67.7017 29.27 68.3217 29.31C68.9417 29.33 69.6017 29.34 70.3017 29.34C71.0617 29.34 71.7517 29.33 72.3717 29.31C72.9917 29.27 73.5417 29.25 74.0217 29.25C74.0817 29.25 74.1117 29.31 74.1117 29.43C74.1117 29.55 74.0817 29.61 74.0217 29.61C73.3817 29.61 72.9017 29.67 72.5817 29.79C72.2617 29.91 72.0417 30.12 71.9217 30.42C71.8017 30.72 71.7417 31.16 71.7417 31.74V45.57C71.7417 46.15 71.7917 46.59 71.8917 46.89C72.0117 47.19 72.2317 47.39 72.5517 47.49C72.8717 47.59 73.3617 47.64 74.0217 47.64C74.1017 47.64 74.1417 47.7 74.1417 47.82C74.1417 47.94 74.1017 48 74.0217 48C73.5217 48 72.9617 47.99 72.3417 47.97C71.7417 47.95 71.0617 47.94 70.3017 47.94C69.6017 47.94 68.9317 47.95 68.2917 47.97C67.6517 47.99 67.0817 48 66.5817 48C66.5417 48 66.5217 47.94 66.5217 47.82C66.5217 47.7 66.5417 47.64 66.5817 47.64C67.2417 47.64 67.7317 47.59 68.0517 47.49C68.3917 47.39 68.6117 47.19 68.7117 46.89C68.8317 46.59 68.8917 46.15 68.8917 45.57ZM76.6917 43.65L72.3417 37.95L74.4417 36.03L78.9417 42C79.7617 43.12 80.4617 44.04 81.0417 44.76C81.6217 45.46 82.1017 46.02 82.4817 46.44C82.8617 46.84 83.2017 47.13 83.5017 47.31C83.8017 47.47 84.0917 47.57 84.3717 47.61C84.6517 47.63 84.9617 47.64 85.3017 47.64C85.3617 47.64 85.3917 47.7 85.3917 47.82C85.3917 47.94 85.3617 48 85.3017 48C84.4217 48 83.7117 48 83.1717 48C82.6317 48 82.2217 48 81.9417 48C81.6817 48 81.4617 48.01 81.2817 48.03C81.1017 48.05 80.9417 48.06 80.8017 48.06C80.5217 48.06 80.2817 48.01 80.0817 47.91C79.9017 47.81 79.6817 47.61 79.4217 47.31C79.1817 47.01 78.8417 46.57 78.4017 45.99C77.9817 45.41 77.4117 44.63 76.6917 43.65ZM69.9117 39.96L77.6517 32.1C78.3917 31.36 78.6817 30.76 78.5217 30.3C78.3617 29.84 77.7717 29.61 76.7517 29.61C76.7117 29.61 76.6917 29.55 76.6917 29.43C76.6917 29.31 76.7117 29.25 76.7517 29.25C77.2917 29.25 77.8317 29.27 78.3717 29.31C78.9117 29.33 79.6217 29.34 80.5017 29.34C81.4017 29.34 82.1117 29.33 82.6317 29.31C83.1517 29.27 83.6617 29.25 84.1617 29.25C84.2217 29.25 84.2517 29.31 84.2517 29.43C84.2517 29.55 84.2217 29.61 84.1617 29.61C83.3017 29.61 82.3517 29.84 81.3117 30.3C80.2717 30.76 79.3017 31.42 78.4017 32.28L70.7217 40.02L69.9117 39.96ZM95.2434 48.18C95.1634 48.22 95.0734 48.24 94.9734 48.24C94.6534 48.24 94.3334 48.01 94.0134 47.55C93.6934 47.09 93.5334 46.42 93.5334 45.54V40.26C93.5334 39 93.4034 38.09 93.1434 37.53C92.9034 36.97 92.5134 36.69 91.9734 36.69C91.4734 36.69 91.0834 36.84 90.8034 37.14C90.5434 37.42 90.3534 37.75 90.2334 38.13C90.1134 38.49 90.0434 38.8 90.0234 39.06C89.9634 39.56 89.8034 39.94 89.5434 40.2C89.3034 40.46 88.9534 40.59 88.4934 40.59C88.0334 40.59 87.7034 40.49 87.5034 40.29C87.3034 40.07 87.2034 39.82 87.2034 39.54C87.2034 39.1 87.4034 38.68 87.8034 38.28C88.2234 37.86 88.7434 37.49 89.3634 37.17C90.0034 36.85 90.6634 36.6 91.3434 36.42C92.0234 36.22 92.6234 36.12 93.1434 36.12C93.9634 36.12 94.6334 36.38 95.1534 36.9C95.6934 37.42 95.9634 38.24 95.9634 39.36V44.76C95.9634 45.38 96.0634 45.85 96.2634 46.17C96.4634 46.49 96.7534 46.65 97.1334 46.65C97.4534 46.65 97.8134 46.56 98.2134 46.38C98.3134 46.34 98.3834 46.38 98.4234 46.5C98.4634 46.6 98.4334 46.67 98.3334 46.71L95.2434 48.18ZM89.6034 48.21C88.7634 48.21 88.1334 48.01 87.7134 47.61C87.3134 47.21 87.1134 46.7 87.1134 46.08C87.1134 45.52 87.2634 45.07 87.5634 44.73C87.8634 44.37 88.2834 44.08 88.8234 43.86C89.3634 43.62 89.9634 43.38 90.6234 43.14L93.8334 41.94L93.9234 42.39L91.7334 43.32C91.4934 43.4 91.2334 43.52 90.9534 43.68C90.6734 43.82 90.4334 44.01 90.2334 44.25C90.0534 44.49 89.9634 44.81 89.9634 45.21C89.9634 45.69 90.1234 46.08 90.4434 46.38C90.7634 46.66 91.1234 46.8 91.5234 46.8C91.7034 46.8 91.8834 46.78 92.0634 46.74C92.2434 46.68 92.4534 46.57 92.6934 46.41L94.3134 45.33L94.3434 45.78L92.2134 47.28C91.7534 47.6 91.3234 47.84 90.9234 48C90.5434 48.14 90.1034 48.21 89.6034 48.21ZM102.291 37.98C102.291 38.44 102.411 38.84 102.651 39.18C102.891 39.52 103.201 39.83 103.581 40.11C103.961 40.37 104.371 40.62 104.811 40.86C105.311 41.14 105.791 41.43 106.251 41.73C106.731 42.03 107.131 42.4 107.451 42.84C107.771 43.26 107.931 43.81 107.931 44.49C107.931 45.13 107.761 45.75 107.421 46.35C107.101 46.93 106.611 47.41 105.951 47.79C105.311 48.15 104.501 48.33 103.521 48.33C103.021 48.33 102.531 48.27 102.051 48.15C101.571 48.03 101.051 47.81 100.491 47.49C100.451 47.45 100.411 47.4 100.371 47.34C100.331 47.28 100.311 47.21 100.311 47.13L100.251 44.37C100.251 44.31 100.301 44.28 100.401 44.28C100.521 44.26 100.591 44.28 100.611 44.34C100.831 44.98 101.131 45.56 101.511 46.08C101.911 46.6 102.351 47.01 102.831 47.31C103.331 47.59 103.841 47.73 104.361 47.73C104.861 47.73 105.251 47.6 105.531 47.34C105.831 47.06 105.971 46.64 105.951 46.08C105.951 45.52 105.821 45.06 105.561 44.7C105.301 44.32 104.971 44 104.571 43.74C104.191 43.48 103.791 43.24 103.371 43.02C102.891 42.76 102.421 42.5 101.961 42.24C101.521 41.96 101.151 41.61 100.851 41.19C100.551 40.75 100.401 40.18 100.401 39.48C100.401 38.66 100.601 38.01 101.001 37.53C101.421 37.03 101.961 36.67 102.621 36.45C103.281 36.21 103.961 36.09 104.661 36.09C105.081 36.09 105.471 36.12 105.831 36.18C106.211 36.24 106.621 36.36 107.061 36.54C107.241 36.6 107.331 36.71 107.331 36.87C107.331 37.25 107.321 37.64 107.301 38.04C107.281 38.44 107.271 38.89 107.271 39.39C107.271 39.43 107.211 39.45 107.091 39.45C106.971 39.45 106.911 39.43 106.911 39.39C106.911 38.99 106.751 38.58 106.431 38.16C106.111 37.74 105.701 37.39 105.201 37.11C104.721 36.81 104.211 36.66 103.671 36.66C103.311 36.66 102.991 36.75 102.711 36.93C102.431 37.11 102.291 37.46 102.291 37.98ZM115.308 48.33C114.248 48.33 113.408 47.99 112.788 47.31C112.188 46.63 111.888 45.72 111.888 44.58V40.11C111.888 39.41 111.808 38.9 111.648 38.58C111.508 38.24 111.278 38.07 110.958 38.07C110.718 38.07 110.438 38.15 110.118 38.31C110.038 38.33 109.968 38.28 109.908 38.16C109.868 38.04 109.878 37.97 109.938 37.95L113.718 36.18C113.778 36.16 113.828 36.15 113.868 36.15C113.948 36.15 114.038 36.19 114.138 36.27C114.238 36.35 114.288 36.42 114.288 36.48V43.29C114.288 44.41 114.488 45.25 114.888 45.81C115.308 46.35 115.938 46.62 116.778 46.62C117.418 46.62 118.058 46.44 118.698 46.08C119.358 45.7 119.898 45.21 120.318 44.61L120.498 44.97C119.738 46.01 118.928 46.83 118.068 47.43C117.208 48.03 116.288 48.33 115.308 48.33ZM122.148 36.48V44.61C122.148 45.29 122.218 45.78 122.358 46.08C122.498 46.36 122.738 46.5 123.078 46.5C123.238 46.5 123.428 46.47 123.648 46.41C123.868 46.33 124.128 46.24 124.428 46.14C124.508 46.1 124.578 46.14 124.638 46.26C124.698 46.36 124.688 46.43 124.608 46.47L120.678 48.36C120.638 48.38 120.598 48.39 120.558 48.39C120.378 48.39 120.198 48.15 120.018 47.67C119.838 47.19 119.748 46.51 119.748 45.63V40.11C119.748 39.41 119.678 38.9 119.538 38.58C119.398 38.24 119.158 38.07 118.818 38.07C118.578 38.07 118.298 38.15 117.978 38.31C117.898 38.33 117.838 38.28 117.798 38.16C117.758 38.04 117.768 37.97 117.828 37.95L121.608 36.18C121.648 36.16 121.688 36.15 121.728 36.15C121.828 36.15 121.918 36.19 121.998 36.27C122.098 36.35 122.148 36.42 122.148 36.48ZM139.139 45.45C139.139 46.05 139.209 46.51 139.349 46.83C139.489 47.13 139.779 47.34 140.219 47.46C140.679 47.58 141.359 47.64 142.259 47.64C142.319 47.64 142.349 47.7 142.349 47.82C142.349 47.94 142.319 48 142.259 48C141.619 48 140.919 47.99 140.159 47.97C139.419 47.95 138.609 47.94 137.729 47.94C137.029 47.94 136.359 47.95 135.719 47.97C135.079 47.99 134.509 48 134.009 48C133.949 48 133.919 47.94 133.919 47.82C133.919 47.7 133.949 47.64 134.009 47.64C134.669 47.64 135.159 47.59 135.479 47.49C135.799 47.39 136.009 47.19 136.109 46.89C136.229 46.59 136.289 46.15 136.289 45.57V31.68C136.289 31.1 136.229 30.67 136.109 30.39C136.009 30.09 135.799 29.89 135.479 29.79C135.159 29.67 134.669 29.61 134.009 29.61C133.949 29.61 133.919 29.55 133.919 29.43C133.919 29.31 133.949 29.25 134.009 29.25C134.509 29.25 135.069 29.27 135.689 29.31C136.329 29.33 136.999 29.34 137.699 29.34C138.179 29.34 138.799 29.31 139.559 29.25C140.339 29.19 141.089 29.16 141.809 29.16C143.029 29.16 144.109 29.33 145.049 29.67C146.009 29.99 146.769 30.51 147.329 31.23C147.889 31.95 148.189 32.9 148.229 34.08C148.249 35.12 148.069 36.02 147.689 36.78C147.309 37.54 146.789 38.17 146.129 38.67C145.489 39.15 144.779 39.52 143.999 39.78C143.219 40.02 142.439 40.14 141.659 40.14C141.439 40.14 141.199 40.13 140.939 40.11C140.699 40.09 140.459 40.05 140.219 39.99C140.159 39.97 140.139 39.9 140.159 39.78C140.179 39.64 140.229 39.58 140.309 39.6C140.469 39.64 140.649 39.67 140.849 39.69C141.049 39.71 141.219 39.72 141.359 39.72C142.019 39.72 142.629 39.54 143.189 39.18C143.749 38.82 144.199 38.27 144.539 37.53C144.899 36.79 145.079 35.86 145.079 34.74C145.079 33.68 144.909 32.78 144.569 32.04C144.229 31.3 143.749 30.74 143.129 30.36C142.529 29.96 141.789 29.76 140.909 29.76C140.449 29.76 140.089 29.81 139.829 29.91C139.569 29.99 139.389 30.17 139.289 30.45C139.189 30.73 139.139 31.16 139.139 31.74V45.45ZM154.35 39.87L154.14 39.51C154.9 38.61 155.54 37.92 156.06 37.44C156.6 36.94 157.05 36.6 157.41 36.42C157.77 36.22 158.11 36.12 158.43 36.12C158.85 36.12 159.27 36.27 159.69 36.57C160.13 36.85 160.35 37.21 160.35 37.65C160.35 38.01 160.24 38.31 160.02 38.55C159.8 38.79 159.49 38.91 159.09 38.91C158.73 38.91 158.45 38.81 158.25 38.61C158.05 38.41 157.86 38.22 157.68 38.04C157.5 37.86 157.25 37.77 156.93 37.77C156.77 37.77 156.6 37.82 156.42 37.92C156.24 38 155.99 38.19 155.67 38.49C155.35 38.79 154.91 39.25 154.35 39.87ZM150.93 48C150.87 48 150.84 47.94 150.84 47.82C150.84 47.7 150.87 47.64 150.93 47.64C151.61 47.64 152.06 47.5 152.28 47.22C152.5 46.94 152.61 46.39 152.61 45.57V39.84C152.61 39.2 152.54 38.73 152.4 38.43C152.26 38.13 152.01 37.98 151.65 37.98C151.47 37.98 151.25 38.02 150.99 38.1C150.73 38.18 150.45 38.29 150.15 38.43C150.07 38.45 150 38.41 149.94 38.31C149.9 38.19 149.91 38.12 149.97 38.1L153.9 36.18C154 36.14 154.07 36.12 154.11 36.12C154.31 36.12 154.51 36.35 154.71 36.81C154.93 37.27 155.04 37.94 155.04 38.82V45.57C155.04 46.11 155.12 46.54 155.28 46.86C155.44 47.16 155.72 47.37 156.12 47.49C156.52 47.59 157.08 47.64 157.8 47.64C157.88 47.64 157.92 47.7 157.92 47.82C157.92 47.94 157.88 48 157.8 48C157.28 48 156.68 47.99 156 47.97C155.34 47.95 154.62 47.94 153.84 47.94C153.3 47.94 152.77 47.95 152.25 47.97C151.75 47.99 151.31 48 150.93 48ZM170.621 48.18C170.541 48.22 170.451 48.24 170.351 48.24C170.031 48.24 169.711 48.01 169.391 47.55C169.071 47.09 168.911 46.42 168.911 45.54V40.26C168.911 39 168.781 38.09 168.521 37.53C168.281 36.97 167.891 36.69 167.351 36.69C166.851 36.69 166.461 36.84 166.181 37.14C165.921 37.42 165.731 37.75 165.611 38.13C165.491 38.49 165.421 38.8 165.401 39.06C165.341 39.56 165.181 39.94 164.921 40.2C164.681 40.46 164.331 40.59 163.871 40.59C163.411 40.59 163.081 40.49 162.881 40.29C162.681 40.07 162.581 39.82 162.581 39.54C162.581 39.1 162.781 38.68 163.181 38.28C163.601 37.86 164.121 37.49 164.741 37.17C165.381 36.85 166.041 36.6 166.721 36.42C167.401 36.22 168.001 36.12 168.521 36.12C169.341 36.12 170.011 36.38 170.531 36.9C171.071 37.42 171.341 38.24 171.341 39.36V44.76C171.341 45.38 171.441 45.85 171.641 46.17C171.841 46.49 172.131 46.65 172.511 46.65C172.831 46.65 173.191 46.56 173.591 46.38C173.691 46.34 173.761 46.38 173.801 46.5C173.841 46.6 173.811 46.67 173.711 46.71L170.621 48.18ZM164.981 48.21C164.141 48.21 163.511 48.01 163.091 47.61C162.691 47.21 162.491 46.7 162.491 46.08C162.491 45.52 162.641 45.07 162.941 44.73C163.241 44.37 163.661 44.08 164.201 43.86C164.741 43.62 165.341 43.38 166.001 43.14L169.211 41.94L169.301 42.39L167.111 43.32C166.871 43.4 166.611 43.52 166.331 43.68C166.051 43.82 165.811 44.01 165.611 44.25C165.431 44.49 165.341 44.81 165.341 45.21C165.341 45.69 165.501 46.08 165.821 46.38C166.141 46.66 166.501 46.8 166.901 46.8C167.081 46.8 167.261 46.78 167.441 46.74C167.621 46.68 167.831 46.57 168.071 46.41L169.691 45.33L169.721 45.78L167.591 47.28C167.131 47.6 166.701 47.84 166.301 48C165.921 48.14 165.481 48.21 164.981 48.21ZM177.668 37.98C177.668 38.44 177.788 38.84 178.028 39.18C178.268 39.52 178.578 39.83 178.958 40.11C179.338 40.37 179.748 40.62 180.188 40.86C180.688 41.14 181.168 41.43 181.628 41.73C182.108 42.03 182.508 42.4 182.828 42.84C183.148 43.26 183.308 43.81 183.308 44.49C183.308 45.13 183.138 45.75 182.798 46.35C182.478 46.93 181.988 47.41 181.328 47.79C180.688 48.15 179.878 48.33 178.898 48.33C178.398 48.33 177.908 48.27 177.428 48.15C176.948 48.03 176.428 47.81 175.868 47.49C175.828 47.45 175.788 47.4 175.748 47.34C175.708 47.28 175.688 47.21 175.688 47.13L175.628 44.37C175.628 44.31 175.678 44.28 175.778 44.28C175.898 44.26 175.968 44.28 175.988 44.34C176.208 44.98 176.508 45.56 176.888 46.08C177.288 46.6 177.728 47.01 178.208 47.31C178.708 47.59 179.218 47.73 179.738 47.73C180.238 47.73 180.628 47.6 180.908 47.34C181.208 47.06 181.348 46.64 181.328 46.08C181.328 45.52 181.198 45.06 180.938 44.7C180.678 44.32 180.348 44 179.948 43.74C179.568 43.48 179.168 43.24 178.748 43.02C178.268 42.76 177.798 42.5 177.338 42.24C176.898 41.96 176.528 41.61 176.228 41.19C175.928 40.75 175.778 40.18 175.778 39.48C175.778 38.66 175.978 38.01 176.378 37.53C176.798 37.03 177.338 36.67 177.998 36.45C178.658 36.21 179.338 36.09 180.038 36.09C180.458 36.09 180.848 36.12 181.208 36.18C181.588 36.24 181.998 36.36 182.438 36.54C182.618 36.6 182.708 36.71 182.708 36.87C182.708 37.25 182.698 37.64 182.678 38.04C182.658 38.44 182.648 38.89 182.648 39.39C182.648 39.43 182.588 39.45 182.468 39.45C182.348 39.45 182.288 39.43 182.288 39.39C182.288 38.99 182.128 38.58 181.808 38.16C181.488 37.74 181.078 37.39 180.578 37.11C180.098 36.81 179.588 36.66 179.048 36.66C178.688 36.66 178.368 36.75 178.088 36.93C177.808 37.11 177.668 37.46 177.668 37.98ZM194.526 48.18C194.446 48.22 194.356 48.24 194.256 48.24C193.936 48.24 193.616 48.01 193.296 47.55C192.976 47.09 192.816 46.42 192.816 45.54V40.26C192.816 39 192.686 38.09 192.426 37.53C192.186 36.97 191.796 36.69 191.256 36.69C190.756 36.69 190.366 36.84 190.086 37.14C189.826 37.42 189.636 37.75 189.516 38.13C189.396 38.49 189.326 38.8 189.306 39.06C189.246 39.56 189.086 39.94 188.826 40.2C188.586 40.46 188.236 40.59 187.776 40.59C187.316 40.59 186.986 40.49 186.786 40.29C186.586 40.07 186.486 39.82 186.486 39.54C186.486 39.1 186.686 38.68 187.086 38.28C187.506 37.86 188.026 37.49 188.646 37.17C189.286 36.85 189.946 36.6 190.626 36.42C191.306 36.22 191.906 36.12 192.426 36.12C193.246 36.12 193.916 36.38 194.436 36.9C194.976 37.42 195.246 38.24 195.246 39.36V44.76C195.246 45.38 195.346 45.85 195.546 46.17C195.746 46.49 196.036 46.65 196.416 46.65C196.736 46.65 197.096 46.56 197.496 46.38C197.596 46.34 197.666 46.38 197.706 46.5C197.746 46.6 197.716 46.67 197.616 46.71L194.526 48.18ZM188.886 48.21C188.046 48.21 187.416 48.01 186.996 47.61C186.596 47.21 186.396 46.7 186.396 46.08C186.396 45.52 186.546 45.07 186.846 44.73C187.146 44.37 187.566 44.08 188.106 43.86C188.646 43.62 189.246 43.38 189.906 43.14L193.116 41.94L193.206 42.39L191.016 43.32C190.776 43.4 190.516 43.52 190.236 43.68C189.956 43.82 189.716 44.01 189.516 44.25C189.336 44.49 189.246 44.81 189.246 45.21C189.246 45.69 189.406 46.08 189.726 46.38C190.046 46.66 190.406 46.8 190.806 46.8C190.986 46.8 191.166 46.78 191.346 46.74C191.526 46.68 191.736 46.57 191.976 46.41L193.596 45.33L193.626 45.78L191.496 47.28C191.036 47.6 190.606 47.84 190.206 48C189.826 48.14 189.386 48.21 188.886 48.21ZM203.913 48.39C203.073 48.39 202.293 48.16 201.573 47.7C200.853 47.22 200.273 46.55 199.833 45.69C199.413 44.83 199.203 43.79 199.203 42.57C199.203 41.39 199.423 40.39 199.863 39.57C200.303 38.73 200.863 38.05 201.543 37.53C202.243 37.01 202.993 36.63 203.793 36.39C204.593 36.15 205.353 36.03 206.073 36.03C206.793 36.03 207.463 36.13 208.083 36.33C208.703 36.53 209.263 36.79 209.763 37.11L209.193 39.39C208.753 38.53 208.243 37.88 207.663 37.44C207.103 36.98 206.383 36.75 205.503 36.75C204.403 36.75 203.523 37.14 202.863 37.92C202.223 38.68 201.903 39.92 201.903 41.64C201.903 42.78 202.053 43.76 202.353 44.58C202.653 45.38 203.073 46 203.613 46.44C204.153 46.86 204.753 47.07 205.413 47.07C206.233 47.07 206.963 46.84 207.603 46.38C208.243 45.92 208.853 45.37 209.433 44.73L209.703 44.97C209.283 45.45 208.783 45.96 208.203 46.5C207.643 47.02 207.003 47.47 206.283 47.85C205.583 48.21 204.793 48.39 203.913 48.39ZM211.023 26.58V44.58C211.023 45.28 211.093 45.78 211.233 46.08C211.373 46.36 211.613 46.5 211.953 46.5C212.113 46.5 212.303 46.47 212.523 46.41C212.763 46.35 213.023 46.26 213.303 46.14C213.363 46.1 213.423 46.14 213.483 46.26C213.543 46.36 213.543 46.43 213.483 46.47L209.643 48.33C209.583 48.35 209.523 48.36 209.463 48.36C209.243 48.36 209.043 48.12 208.863 47.64C208.683 47.16 208.593 46.46 208.593 45.54V30.24C208.593 29.56 208.533 29.06 208.413 28.74C208.293 28.42 208.053 28.26 207.693 28.26C207.533 28.26 207.353 28.3 207.153 28.38C206.953 28.44 206.733 28.52 206.493 28.62C206.413 28.66 206.343 28.62 206.283 28.5C206.223 28.38 206.223 28.31 206.283 28.29L210.483 26.28C210.523 26.26 210.563 26.25 210.603 26.25C210.683 26.25 210.773 26.29 210.873 26.37C210.973 26.45 211.023 26.52 211.023 26.58ZM237.907 48C237.607 48 237.107 47.62 236.407 46.86C235.707 46.1 234.857 45.01 233.857 43.59C232.877 42.15 231.777 40.44 230.557 38.46L232.957 37.74C234.577 40.16 235.957 42.1 237.097 43.56C238.257 45 239.277 46.04 240.157 46.68C241.057 47.32 241.917 47.64 242.737 47.64C242.777 47.64 242.797 47.7 242.797 47.82C242.797 47.94 242.777 48 242.737 48C241.477 48 240.447 48 239.647 48C238.867 48 238.287 48 237.907 48ZM231.097 29.16C232.837 29.16 234.177 29.51 235.117 30.21C236.077 30.89 236.557 31.83 236.557 33.03C236.557 34.17 236.227 35.19 235.567 36.09C234.927 36.99 234.087 37.69 233.047 38.19C232.027 38.69 230.927 38.94 229.747 38.94C229.507 38.94 229.247 38.94 228.967 38.94C228.687 38.92 228.437 38.9 228.217 38.88V45.57C228.217 46.15 228.267 46.59 228.367 46.89C228.467 47.19 228.677 47.39 228.997 47.49C229.337 47.59 229.827 47.64 230.467 47.64C230.527 47.64 230.557 47.7 230.557 47.82C230.557 47.94 230.527 48 230.467 48C229.967 48 229.407 47.99 228.787 47.97C228.167 47.95 227.487 47.94 226.747 47.94C226.047 47.94 225.377 47.95 224.737 47.97C224.097 47.99 223.527 48 223.027 48C222.967 48 222.937 47.94 222.937 47.82C222.937 47.7 222.967 47.64 223.027 47.64C223.687 47.64 224.177 47.59 224.497 47.49C224.817 47.39 225.037 47.19 225.157 46.89C225.277 46.59 225.337 46.15 225.337 45.57V31.68C225.337 31.1 225.277 30.67 225.157 30.39C225.057 30.09 224.847 29.89 224.527 29.79C224.207 29.67 223.717 29.61 223.057 29.61C223.017 29.61 222.997 29.55 222.997 29.43C222.997 29.31 223.017 29.25 223.057 29.25C223.557 29.25 224.117 29.27 224.737 29.31C225.377 29.33 226.047 29.34 226.747 29.34C227.387 29.34 228.107 29.31 228.907 29.25C229.707 29.19 230.437 29.16 231.097 29.16ZM233.587 34.08C233.587 32.92 233.447 32.03 233.167 31.41C232.907 30.77 232.537 30.33 232.057 30.09C231.577 29.85 231.017 29.73 230.377 29.73C229.597 29.73 229.037 29.88 228.697 30.18C228.377 30.46 228.217 30.98 228.217 31.74V38.07C228.497 38.11 228.797 38.14 229.117 38.16C229.437 38.18 229.717 38.19 229.957 38.19C231.297 38.19 232.237 37.86 232.777 37.2C233.317 36.52 233.587 35.48 233.587 34.08ZM249.393 48.36C248.133 48.36 247.063 48.09 246.183 47.55C245.303 47.01 244.633 46.3 244.173 45.42C243.733 44.52 243.513 43.57 243.513 42.57C243.513 41.37 243.803 40.29 244.383 39.33C244.963 38.37 245.753 37.6 246.753 37.02C247.753 36.44 248.883 36.15 250.143 36.15C251.323 36.15 252.243 36.43 252.903 36.99C253.563 37.55 253.893 38.42 253.893 39.6C253.893 39.86 253.873 40.07 253.833 40.23C253.793 40.39 253.703 40.47 253.563 40.47H251.103C251.163 39.31 251.023 38.4 250.683 37.74C250.363 37.08 249.823 36.75 249.063 36.75C248.163 36.75 247.453 37.17 246.933 38.01C246.433 38.83 246.183 39.93 246.183 41.31C246.183 42.47 246.363 43.48 246.723 44.34C247.083 45.18 247.613 45.84 248.313 46.32C249.013 46.8 249.873 47.04 250.893 47.04C251.513 47.04 252.033 46.96 252.453 46.8C252.873 46.62 253.323 46.4 253.803 46.14C253.843 46.1 253.893 46.12 253.953 46.2C254.033 46.28 254.053 46.35 254.013 46.41C253.293 47.11 252.553 47.61 251.793 47.91C251.053 48.21 250.253 48.36 249.393 48.36ZM245.313 40.5L245.283 39.99L251.943 39.87V40.47L245.313 40.5ZM261.069 48.39C260.229 48.39 259.449 48.16 258.729 47.7C258.009 47.22 257.429 46.55 256.989 45.69C256.569 44.83 256.359 43.79 256.359 42.57C256.359 41.39 256.579 40.39 257.019 39.57C257.459 38.73 258.019 38.05 258.699 37.53C259.399 37.01 260.149 36.63 260.949 36.39C261.749 36.15 262.509 36.03 263.229 36.03C263.949 36.03 264.619 36.13 265.239 36.33C265.859 36.53 266.419 36.79 266.919 37.11L266.349 39.39C265.909 38.53 265.399 37.88 264.819 37.44C264.259 36.98 263.539 36.75 262.659 36.75C261.559 36.75 260.679 37.14 260.019 37.92C259.379 38.68 259.059 39.92 259.059 41.64C259.059 42.78 259.209 43.76 259.509 44.58C259.809 45.38 260.229 46 260.769 46.44C261.309 46.86 261.909 47.07 262.569 47.07C263.389 47.07 264.119 46.84 264.759 46.38C265.399 45.92 266.009 45.37 266.589 44.73L266.859 44.97C266.439 45.45 265.939 45.96 265.359 46.5C264.799 47.02 264.159 47.47 263.439 47.85C262.739 48.21 261.949 48.39 261.069 48.39ZM268.179 26.58V44.58C268.179 45.28 268.249 45.78 268.389 46.08C268.529 46.36 268.769 46.5 269.109 46.5C269.269 46.5 269.459 46.47 269.679 46.41C269.919 46.35 270.179 46.26 270.459 46.14C270.519 46.1 270.579 46.14 270.639 46.26C270.699 46.36 270.699 46.43 270.639 46.47L266.799 48.33C266.739 48.35 266.679 48.36 266.619 48.36C266.399 48.36 266.199 48.12 266.019 47.64C265.839 47.16 265.749 46.46 265.749 45.54V30.24C265.749 29.56 265.689 29.06 265.569 28.74C265.449 28.42 265.209 28.26 264.849 28.26C264.689 28.26 264.509 28.3 264.309 28.38C264.109 28.44 263.889 28.52 263.649 28.62C263.569 28.66 263.499 28.62 263.439 28.5C263.379 28.38 263.379 28.31 263.439 28.29L267.639 26.28C267.679 26.26 267.719 26.25 267.759 26.25C267.839 26.25 267.929 26.29 268.029 26.37C268.129 26.45 268.179 26.52 268.179 26.58ZM276.992 48.39C276.152 48.39 275.372 48.16 274.652 47.7C273.932 47.22 273.352 46.55 272.912 45.69C272.492 44.83 272.282 43.79 272.282 42.57C272.282 41.39 272.502 40.39 272.942 39.57C273.382 38.73 273.942 38.05 274.622 37.53C275.322 37.01 276.072 36.63 276.872 36.39C277.672 36.15 278.432 36.03 279.152 36.03C279.872 36.03 280.542 36.13 281.162 36.33C281.782 36.53 282.342 36.79 282.842 37.11L282.272 39.39C281.832 38.53 281.322 37.88 280.742 37.44C280.182 36.98 279.462 36.75 278.582 36.75C277.482 36.75 276.602 37.14 275.942 37.92C275.302 38.68 274.982 39.92 274.982 41.64C274.982 42.78 275.132 43.76 275.432 44.58C275.732 45.38 276.152 46 276.692 46.44C277.232 46.86 277.832 47.07 278.492 47.07C279.312 47.07 280.042 46.84 280.682 46.38C281.322 45.92 281.932 45.37 282.512 44.73L282.782 44.97C282.362 45.45 281.862 45.96 281.282 46.5C280.722 47.02 280.082 47.47 279.362 47.85C278.662 48.21 277.872 48.39 276.992 48.39ZM284.102 26.58V44.58C284.102 45.28 284.172 45.78 284.312 46.08C284.452 46.36 284.692 46.5 285.032 46.5C285.192 46.5 285.382 46.47 285.602 46.41C285.842 46.35 286.102 46.26 286.382 46.14C286.442 46.1 286.502 46.14 286.562 46.26C286.622 46.36 286.622 46.43 286.562 46.47L282.722 48.33C282.662 48.35 282.602 48.36 282.542 48.36C282.322 48.36 282.122 48.12 281.942 47.64C281.762 47.16 281.672 46.46 281.672 45.54V30.24C281.672 29.56 281.612 29.06 281.492 28.74C281.372 28.42 281.132 28.26 280.772 28.26C280.612 28.26 280.432 28.3 280.232 28.38C280.032 28.44 279.812 28.52 279.572 28.62C279.492 28.66 279.422 28.62 279.362 28.5C279.302 28.38 279.302 28.31 279.362 28.29L283.562 26.28C283.602 26.26 283.642 26.25 283.682 26.25C283.762 26.25 283.852 26.29 283.952 26.37C284.052 26.45 284.102 26.52 284.102 26.58ZM300.354 36.42C300.394 36.42 300.414 36.48 300.414 36.6C300.414 36.72 300.394 36.78 300.354 36.78C299.734 36.78 299.204 37.03 298.764 37.53C298.344 38.03 297.964 38.75 297.624 39.69L294.174 48.84C293.454 50.76 292.754 52.27 292.074 53.37C291.414 54.49 290.734 55.28 290.034 55.74C289.354 56.2 288.624 56.43 287.844 56.43C287.304 56.43 286.874 56.31 286.554 56.07C286.234 55.85 286.074 55.51 286.074 55.05C286.074 54.65 286.204 54.34 286.464 54.12C286.724 53.92 287.024 53.82 287.364 53.82C287.704 53.82 287.974 53.88 288.174 54C288.394 54.14 288.594 54.27 288.774 54.39C288.974 54.53 289.234 54.6 289.554 54.6C290.054 54.6 290.504 54.38 290.904 53.94C291.324 53.52 291.774 52.8 292.254 51.78C292.734 50.76 293.304 49.37 293.964 47.61L293.874 48.99L288.924 38.91C288.484 38.03 288.134 37.46 287.874 37.2C287.634 36.92 287.324 36.78 286.944 36.78C286.904 36.78 286.884 36.72 286.884 36.6C286.884 36.48 286.904 36.42 286.944 36.42C287.324 36.42 287.714 36.43 288.114 36.45C288.534 36.47 288.934 36.48 289.314 36.48C290.014 36.48 290.624 36.47 291.144 36.45C291.684 36.43 292.164 36.42 292.584 36.42C292.644 36.42 292.674 36.48 292.674 36.6C292.674 36.72 292.644 36.78 292.584 36.78C291.904 36.78 291.434 36.86 291.174 37.02C290.934 37.18 290.934 37.49 291.174 37.95L295.074 45.96L294.144 47.55L296.874 39.69C297.194 38.73 297.204 38.01 296.904 37.53C296.604 37.03 296.004 36.78 295.104 36.78C295.064 36.78 295.044 36.72 295.044 36.6C295.044 36.48 295.064 36.42 295.104 36.42C295.584 36.42 296.034 36.43 296.454 36.45C296.894 36.47 297.454 36.48 298.134 36.48C298.594 36.48 298.974 36.47 299.274 36.45C299.574 36.43 299.934 36.42 300.354 36.42Z" fill="#0A1628"/>
</svg>
